<?xml version="1.0" encoding="utf-8" ?>
<svg baseProfile="full" height="400px" version="1.1" width="600px" xmlns="http://www.w3.org/2000/svg" xmlns:ev="http://www.w3.org/2001/xml-events" xmlns:xlink="http://www.w3.org/1999/xlink"><defs /><rect fill="white" height="100%" width="100%" x="0" y="0" /><circle cx="50" cy="-11119.892712765015" fill="red" r="3" /><circle cx="80" cy="-10866.153577926982" fill="red" r="3" /><circle cx="110" cy="-10617.279437029294" fill="red" r="3" /><circle cx="140" cy="-10372.207986765143" fill="red" r="3" /><circle cx="170" cy="-10129.937811342214" fill="red" r="3" /><circle cx="200" cy="-9889.51145824098" fill="red" r="3" /><circle cx="230" cy="-9650.0" fill="red" r="3" /><circle cx="260" cy="-9410.48854175902" fill="red" r="3" /><circle cx="290" cy="-9170.062188657788" fill="red" r="3" /><circle cx="320" cy="-8927.792013234857" fill="red" r="3" /><circle cx="350" cy="-8682.720562970706" fill="red" r="3" /><circle cx="380" cy="-8433.846422073017" fill="red" r="3" /><circle cx="410" cy="-8180.107287234985" fill="red" r="3" /><circle cx="440" cy="-7920.360929578148" fill="red" r="3" /><polyline fill="none" points="50.0,-11119.89362440955 51.98994974874372,-11102.900366671829 53.97989949748744,-11085.931914962513 55.969849246231156,-11068.987991716715 57.959798994974875,-11052.068319369535 59.949748743718594,-11035.172620356087 61.93969849246231,-11018.300617111474 63.92964824120603,-11001.452032070807 65.91959798994975,-10984.626587669192 67.90954773869346,-10967.82400634174 69.89949748743719,-10951.044010523556 71.8894472361809,-10934.286322649748 73.87939698492463,-10917.550665155424 75.86934673366834,-10900.836760475695 77.85929648241206,-10884.144331045663 79.84924623115577,-10867.473099300441 81.8391959798995,-10850.822787675135 83.82914572864323,-10834.193118604855 85.81909547738692,-10817.583814524705 87.80904522613065,-10800.994597869796 89.79899497487438,-10784.425191075234 91.78894472361809,-10767.875316576128 93.77889447236181,-10751.344696807584 95.76884422110552,-10734.833054204712 97.75879396984925,-10718.340111202619 99.74874371859296,-10701.865590236413 101.73869346733667,-10685.409213741204 103.7286432160804,-10668.970704152098 105.71859296482413,-10652.5497839042 107.70854271356784,-10636.146175432623 109.69849246231155,-10619.759601172473 111.68844221105527,-10603.389783558854 113.678391959799,-10587.03644502688 115.66834170854271,-10570.699308011655 117.65829145728644,-10554.37809494829 119.64824120603015,-10538.072528271892 121.63819095477386,-10521.782330417564 123.62814070351759,-10505.507223820421 125.6180904522613,-10489.246930915564 127.60804020100502,-10473.001174138108 129.59798994974875,-10456.769675923155 131.58793969849245,-10440.552158705817 133.57788944723617,-10424.348344921202 135.5678391959799,-10408.157957004414 137.55778894472363,-10391.980717390563 139.54773869346735,-10375.816348514756 141.53768844221105,-10359.664572812104 143.52763819095478,-10343.52511271771 145.5175879396985,-10327.397690666687 147.5075376884422,-10311.282029094138 149.49748743718592,-10295.177850435175 151.48743718592965,-10279.084877124906 153.47738693467335,-10263.002831598433 155.4673366834171,-10246.93143629087 157.4572864321608,-10230.870413637324 159.44723618090453,-10214.8194860729 161.43718592964825,-10198.778376032707 163.42713567839195,-10182.746805951856 165.41708542713567,-10166.72449826545 167.4070351758794,-10150.7111754086 169.3969849246231,-10134.706559816415 171.38693467336682,-10118.710373924001 173.37688442211055,-10102.722340166463 175.36683417085425,-10086.742180978912 177.356783919598,-10070.76961879646 179.3467336683417,-10054.804376054206 181.33668341708542,-10038.846175187266 183.32663316582915,-10022.89473863074 185.31658291457288,-10006.949788819746 187.30653266331657,-9991.011048189383 189.2964824120603,-9975.078239174762 191.28643216080403,-9959.15108421099 193.27638190954772,-9943.229305733177 195.26633165829145,-9927.31262617643 197.25628140703517,-9911.400767975856 199.2462311557789,-9895.493453566563 201.2361809045226,-9879.590405383662 203.22613065326635,-9863.691345862255 205.21608040201005,-9847.795997437457 207.20603015075378,-9831.904082544368 209.19597989949747,-9816.015323618101 211.1859296482412,-9800.129443093763 213.17587939698493,-9784.246163406462 215.16582914572862,-9768.365206991308 217.15577889447235,-9752.486296283403 219.14572864321607,-9736.609153717858 221.1356783919598,-9720.733501729785 223.1256281407035,-9704.859062754285 225.11557788944725,-9688.98555922647 227.10552763819095,-9673.112713581448 229.09547738693468,-9657.240248254324 231.0854271356784,-9641.367885680209 233.0753768844221,-9625.495348294207 235.06532663316582,-9609.622358531431 237.05527638190955,-9593.748638826986 239.04522613065325,-9577.87391161598 241.03517587939697,-9561.99789933352 243.0251256281407,-9546.120324414716 245.0150753768844,-9530.240909294676 247.00502512562815,-9514.359376408505 248.99497487437185,-9498.475448191313 250.9849246231156,-9482.588847078208 252.97487437185927,-9466.699295504297 254.964824120603,-9450.80651590469 256.9547738693467,-9434.91023071449 258.94472361809045,-9419.010162368812 260.9346733668342,-9403.106033302758 262.9246231155779,-9387.197565951437 264.9145728643216,-9371.28448274996 266.9045226130653,-9355.36650613343 268.89447236180905,-9339.443358536959 270.88442211055275,-9323.514762395653 272.8743718592965,-9307.58044014462 274.8643216080402,-9291.640114218968 276.8542713567839,-9275.693507053806 278.8442211055276,-9259.740341084242 280.83417085427135,-9243.78033874538 282.8241206030151,-9227.813222472332 284.8140703517588,-9211.838714700205 286.8040201005025,-9195.856537864107 288.7939698492462,-9179.866414399145 290.78391959798995,-9163.868066740426 292.77386934673365,-9147.861217323061 294.7638190954774,-9131.845588582155 296.7537688442211,-9115.820902952817 298.74371859296485,-9099.786882870156 300.7336683417085,-9083.743250769277 302.72361809045225,-9067.68972908529 304.713567839196,-9051.626040253304 306.7035175879397,-9035.551906708424 308.6934673366834,-9019.46705088576 310.6834170854271,-9003.37119522042 312.67336683417085,-8987.26406214751 314.66331658291455,-8971.145374102138 316.6532663316583,-8955.014853519413 318.643216080402,-8938.872222834443 320.63316582914575,-8922.717204482336 322.6231155778894,-8906.5495208982 324.61306532663315,-8890.368894517142 326.6030150753769,-8874.17504777427 328.5929648241206,-8857.967703104692 330.5829145728643,-8841.746582943515 332.57286432160805,-8825.511409725848 334.56281407035175,-8809.2619058868 336.55276381909545,-8792.99779386148 338.5427135678392,-8776.71879608499 340.5326633165829,-8760.424634992443 342.52261306532665,-8744.115033018945 344.51256281407035,-8727.789712599604 346.50251256281405,-8711.448396169528 348.4924623115578,-8695.090806163826 350.4824120603015,-8678.716665017602 352.4723618090452,-8662.32569516597 354.46231155778895,-8645.917619044034 356.4522613065327,-8629.492159086902 358.44221105527635,-8613.049037729683 360.4321608040201,-8596.587977407484 362.4221105527638,-8580.108700555413 364.41206030150755,-8563.610929608578 366.40201005025125,-8547.094387002087 368.39195979899495,-8530.558795171048 370.3819095477387,-8514.003876550569 372.3718592964824,-8497.429353575757 374.3618090452261,-8480.834948681722 376.35175879396985,-8464.22038430357 378.3417085427136,-8447.585382876408 380.33165829145725,-8430.929666835347 382.321608040201,-8414.25295861549 384.3115577889447,-8397.55498065195 386.30150753768845,-8380.835455379834 388.29145728643215,-8364.094105234248 390.2814070351759,-8347.3306526503 392.2713567839196,-8330.544820063098 394.2613065326633,-8313.736329907751 396.251256281407,-8296.904904619369 398.24120603015075,-8280.050266633054 400.2311557788945,-8263.172138383918 402.2211055276382,-8246.270242307066 404.2110552763819,-8229.34430083761 406.2010050251256,-8212.394036410657 408.19095477386935,-8195.41917146131 410.18090452261305,-8178.419428424682 412.1708542713568,-8161.3945297358805 414.1608040201005,-8144.3441978300125 416.1507537688442,-8127.268155142185 418.1407035175879,-8110.166124107505 420.13065326633165,-8093.0378271610825 422.1206030150754,-8075.882986738026 424.1105527638191,-8058.701325273441 426.1005025125628,-8041.492565202439 428.0904522613065,-8024.256428960123 430.08040201005025,-8006.992638981605 432.07035175879395,-7989.70091770199 434.06030150753764,-7972.3809875563875 436.0502512562814,-7955.032570979905 438.0402010050251,-7937.655390407652 440.0301507537688,-7920.249168274733 442.02010050251255,-7902.813627016258 444.0100502512563,-7885.3484890673335 446.0,-7867.853476863071" stroke="black" stroke-width="2" /></svg>