<?xml version="1.0" encoding="utf-8" ?>
<svg baseProfile="full" height="400px" version="1.1" width="600px" xmlns="http://www.w3.org/2000/svg" xmlns:ev="http://www.w3.org/2001/xml-events" xmlns:xlink="http://www.w3.org/1999/xlink"><defs /><rect fill="white" height="100%" width="100%" x="0" y="0" /><circle cx="50" cy="-13144.785430715392" fill="red" r="3" /><circle cx="80" cy="-12817.178619554521" fill="red" r="3" /><circle cx="110" cy="-12505.682105883865" fill="red" r="3" /><circle cx="140" cy="-12208.03058187885" fill="red" r="3" /><circle cx="170" cy="-11922.257256446692" fill="red" r="3" /><circle cx="200" cy="-11646.63671368888" fill="red" r="3" /><circle cx="230" cy="-11379.639070421852" fill="red" r="3" /><circle cx="260" cy="-11119.892712765015" fill="red" r="3" /><circle cx="290" cy="-10866.153577926983" fill="red" r="3" /><circle cx="320" cy="-10617.279437029292" fill="red" r="3" /><circle cx="350" cy="-10372.207986765143" fill="red" r="3" /><circle cx="380" cy="-10129.93781134221" fill="red" r="3" /><circle cx="410" cy="-9889.51145824098" fill="red" r="3" /><circle cx="440" cy="-9650.0" fill="red" r="3" /><polyline fill="none" points="50.0,-13143.37779855516 51.98994974874372,-13121.332385003094 53.97989949748744,-13099.354948759585 55.969849246231156,-13077.445107159398 57.959798994974875,-13055.60247753729 59.949748743718594,-13033.826677228026 61.93969849246231,-13012.117323566365 63.92964824120603,-12990.474033887065 65.91959798994975,-12968.89642552489 67.90954773869346,-12947.384115814599 69.89949748743719,-12925.936722090952 71.8894472361809,-12904.553861688708 73.87939698492463,-12883.23515194263 75.86934673366834,-12861.980210187477 77.85929648241206,-12840.788653758013 79.84924623115577,-12819.660099988996 81.8391959798995,-12798.594166215187 83.82914572864323,-12777.590469771345 85.81909547738692,-12756.648627992232 87.80904522613065,-12735.768258212609 89.79899497487438,-12714.948977767233 91.78894472361809,-12694.19040399087 93.77889447236181,-12673.492154218275 95.76884422110552,-12652.853845784213 97.75879396984925,-12632.275096023443 99.74874371859296,-12611.755522270725 101.73869346733667,-12591.29474186082 103.7286432160804,-12570.892372128488 105.71859296482413,-12550.54803040849 107.70854271356784,-12530.261334035587 109.69849246231155,-12510.031900344538 111.68844221105527,-12489.859346670106 113.678391959799,-12469.743290347049 115.66834170854271,-12449.683348710128 117.65829145728644,-12429.679139094105 119.64824120603015,-12409.73027883374 121.63819095477386,-12389.83638526379 123.62814070351759,-12369.997075719022 125.6180904522613,-12350.211967534193 127.60804020100502,-12330.480678044063 129.59798994974875,-12310.802824583392 131.58793969849245,-12291.178024486944 133.57788944723617,-12271.605895089477 135.5678391959799,-12252.08605372575 137.55778894472363,-12232.618117730526 139.54773869346735,-12213.201704438565 141.53768844221105,-12193.836431184629 143.52763819095478,-12174.521915303476 145.5175879396985,-12155.257774129866 147.5075376884422,-12136.043624998563 149.49748743718592,-12116.879085244325 151.48743718592965,-12097.763772201914 153.47738693467335,-12078.697303206085 155.4673366834171,-12059.679295591606 157.4572864321608,-12040.709366693236 159.44723618090453,-12021.787133845733 161.43718592964825,-12002.91221438386 163.42713567839195,-11984.084225642375 165.41708542713567,-11965.302784956039 167.4070351758794,-11946.567509659615 169.3969849246231,-11927.87801708786 171.38693467336682,-11909.233924575537 173.37688442211055,-11890.634849457405 175.36683417085425,-11872.080409068229 177.356783919598,-11853.57022074276 179.3467336683417,-11835.103901815768 181.33668341708542,-11816.68106962201 183.32663316582915,-11798.301341496246 185.31658291457288,-11779.964334773238 187.30653266331657,-11761.669666787744 189.2964824120603,-11743.416954874527 191.28643216080403,-11725.205816368345 193.27638190954772,-11707.035868603962 195.26633165829145,-11688.906728916136 197.25628140703517,-11670.818014639628 199.2462311557789,-11652.769343109198 201.2361809045226,-11634.760331659609 203.22613065326635,-11616.790597625619 205.21608040201005,-11598.859758341989 207.20603015075378,-11580.967431143481 209.19597989949747,-11563.113233364853 211.1859296482412,-11545.296782340865 213.17587939698493,-11527.51769540628 215.16582914572862,-11509.775589895862 217.15577889447235,-11492.070083144365 219.14572864321607,-11474.400792486551 221.1356783919598,-11456.767335257184 223.1256281407035,-11439.16932879102 225.11557788944725,-11421.606390422821 227.10552763819095,-11404.07813748735 229.09547738693468,-11386.584187319364 231.0854271356784,-11369.124157253626 233.0753768844221,-11351.697664624897 235.06532663316582,-11334.304326767933 237.05527638190955,-11316.9437610175 239.04522613065325,-11299.615584708354 241.03517587939697,-11282.319415175261 243.0251256281407,-11265.054869752976 245.0150753768844,-11247.821565776263 247.00502512562815,-11230.619120579882 248.99497487437185,-11213.447151498589 250.9849246231156,-11196.305275867153 252.97487437185927,-11179.193111020326 254.964824120603,-11162.110274292874 256.9547738693467,-11145.056383019557 258.94472361809045,-11128.031054535135 260.9346733668342,-11111.033906174365 262.9246231155779,-11094.064555272014 264.9145728643216,-11077.122619162838 266.9045226130653,-11060.207715181597 268.89447236180905,-11043.319460663057 270.88442211055275,-11026.45747294197 272.8743718592965,-11009.621369353103 274.8643216080402,-10992.810767231218 276.8542713567839,-10976.025283911067 278.8442211055276,-10959.26453672742 280.83417085427135,-10942.528143015032 282.8241206030151,-10925.815720108661 284.8140703517588,-10909.126885343077 286.8040201005025,-10892.461256053031 288.7939698492462,-10875.818449573291 290.78391959798995,-10859.19808323861 292.77386934673365,-10842.599774383758 294.7638190954774,-10826.023140343485 296.7537688442211,-10809.467798452559 298.74371859296485,-10792.933366045736 300.7336683417085,-10776.41946045778 302.72361809045225,-10759.92569902345 304.713567839196,-10743.451699077506 306.7035175879397,-10726.99707795471 308.6934673366834,-10710.561452989821 310.6834170854271,-10694.144441517601 312.67336683417085,-10677.745660872808 314.66331658291455,-10661.364728390206 316.6532663316583,-10645.001261404555 318.643216080402,-10628.65487725061 320.63316582914575,-10612.325193263141 322.6231155778894,-10596.011826776901 324.61306532663315,-10579.714395126652 326.6030150753769,-10563.432515647157 328.5929648241206,-10547.165805673174 330.5829145728643,-10530.913882539464 332.57286432160805,-10514.676363580787 334.56281407035175,-10498.45286613191 336.55276381909545,-10482.243007527584 338.5427135678392,-10466.046405102574 340.5326633165829,-10449.86267619164 342.52261306532665,-10433.691438129545 344.51256281407035,-10417.532308251044 346.50251256281405,-10401.384903890901 348.4924623115578,-10385.248842383879 350.4824120603015,-10369.123741064732 352.4723618090452,-10353.009217268227 354.46231155778895,-10336.90488832912 356.4522613065327,-10320.810371582174 358.44221105527635,-10304.72528436215 360.4321608040201,-10288.649244003807 362.4221105527638,-10272.581867841905 364.41206030150755,-10256.522773211207 366.40201005025125,-10240.47157744647 368.39195979899495,-10224.427897882459 370.3819095477387,-10208.39135185393 372.3718592964824,-10192.361556695647 374.3618090452261,-10176.338129742366 376.35175879396985,-10160.320688328855 378.3417085427136,-10144.308849789868 380.33165829145725,-10128.302231460168 382.321608040201,-10112.300450674516 384.3115577889447,-10096.30312476767 386.30150753768845,-10080.30987107439 388.29145728643215,-10064.320306929443 390.2814070351759,-10048.334049667585 392.2713567839196,-10032.350716623578 394.2613065326633,-10016.369925132178 396.251256281407,-10000.39129252815 398.24120603015075,-9984.414436146253 400.2311557788945,-9968.438973321248 402.2211055276382,-9952.464521387898 404.2110552763819,-9936.490697680962 406.2010050251256,-9920.517119535194 408.19095477386935,-9904.543404285363 410.18090452261305,-9888.569169266228 412.1708542713568,-9872.594031812547 414.1608040201005,-9856.61760925908 416.1507537688442,-9840.63951894059 418.1407035175879,-9824.659378191836 420.13065326633165,-9808.67680434758 422.1206030150754,-9792.691414742583 424.1105527638191,-9776.702826711604 426.1005025125628,-9760.710657589403 428.0904522613065,-9744.714524710742 430.08040201005025,-9728.71404541038 432.07035175879395,-9712.708837023078 434.06030150753764,-9696.698516883598 436.0502512562814,-9680.6827023267 438.0402010050251,-9664.661010687143 440.0301507537688,-9648.63305929969 442.02010050251255,-9632.598465499097 444.0100502512563,-9616.556846620131 446.0,-9600.507819997547" stroke="black" stroke-width="2" /></svg>