<?xml version="1.0" encoding="utf-8" ?>
<svg baseProfile="full" height="400px" version="1.1" width="600px" xmlns="http://www.w3.org/2000/svg" xmlns:ev="http://www.w3.org/2001/xml-events" xmlns:xlink="http://www.w3.org/1999/xlink"><defs /><rect fill="white" height="100%" width="100%" x="0" y="0" /><circle cx="50" cy="-11922.257256446692" fill="red" r="3" /><circle cx="80" cy="-11646.63671368888" fill="red" r="3" /><circle cx="110" cy="-11379.639070421852" fill="red" r="3" /><circle cx="140" cy="-11119.892712765015" fill="red" r="3" /><circle cx="170" cy="-10866.153577926983" fill="red" r="3" /><circle cx="200" cy="-10617.279437029294" fill="red" r="3" /><circle cx="230" cy="-10372.207986765143" fill="red" r="3" /><circle cx="260" cy="-10129.93781134221" fill="red" r="3" /><circle cx="290" cy="-9889.51145824098" fill="red" r="3" /><circle cx="320" cy="-9650.0" fill="red" r="3" /><circle cx="350" cy="-9410.48854175902" fill="red" r="3" /><circle cx="380" cy="-9170.062188657788" fill="red" r="3" /><circle cx="410" cy="-8927.792013234857" fill="red" r="3" /><circle cx="440" cy="-8682.720562970706" fill="red" r="3" /><polyline fill="none" points="50.0,-11921.777671647058 51.98994974874372,-11903.283391981797 53.97989949748744,-11884.828094765518 55.969849246231156,-11866.411488931835 57.959798994974875,-11848.033283414356 59.949748743718594,-11829.693187146697 61.93969849246231,-11811.390909062467 63.92964824120603,-11793.126158095281 65.91959798994975,-11774.898643178749 67.90954773869346,-11756.70807324648 69.89949748743719,-11738.55415723209 71.8894472361809,-11720.436604069191 73.87939698492463,-11702.35512269139 75.86934673366834,-11684.309422032304 77.85929648241206,-11666.299211025544 79.84924623115577,-11648.324198604718 81.8391959798995,-11630.384093703444 83.82914572864323,-11612.478605255328 85.81909547738692,-11594.607442193985 87.80904522613065,-11576.770313453026 89.79899497487438,-11558.966927966065 91.78894472361809,-11541.196994666709 93.77889447236181,-11523.460222488575 95.76884422110552,-11505.756320365272 97.75879396984925,-11488.084997230413 99.74874371859296,-11470.445962017606 101.73869346733667,-11452.83892366047 103.7286432160804,-11435.263591092611 105.71859296482413,-11417.719673247646 107.70854271356784,-11400.20687905918 109.69849246231155,-11382.724917460833 111.68844221105527,-11365.273497386208 113.678391959799,-11347.852327768924 115.66834170854271,-11330.461117542589 117.65829145728644,-11313.099575640816 119.64824120603015,-11295.767410997216 121.63819095477386,-11278.464332545405 123.62814070351759,-11261.190049218989 125.6180904522613,-11243.944269951582 127.60804020100502,-11226.726703676797 129.59798994974875,-11209.537059328248 131.58793969849245,-11192.37504583954 133.57788944723617,-11175.24037214429 135.5678391959799,-11158.13274717611 137.55778894472363,-11141.05187986861 139.54773869346735,-11123.997479155403 141.53768844221105,-11106.969253970099 143.52763819095478,-11089.96691324631 145.5175879396985,-11072.990165917652 147.5075376884422,-11056.038720917732 149.49748743718592,-11039.112287180164 151.48743718592965,-11022.21057363856 153.47738693467335,-11005.33328922653 155.4673366834171,-10988.48014287769 157.4572864321608,-10971.650843525647 159.44723618090453,-10954.845100104016 161.43718592964825,-10938.062621546407 163.42713567839195,-10921.303116786432 165.41708542713567,-10904.566294757706 167.4070351758794,-10887.851864393837 169.3969849246231,-10871.159534628438 171.38693467336682,-10854.489014395122 173.37688442211055,-10837.840012627497 175.36683417085425,-10821.21223825918 177.356783919598,-10804.605400223782 179.3467336683417,-10788.019207454912 181.33668341708542,-10771.453368886185 183.32663316582915,-10754.90759345121 185.31658291457288,-10738.3815900836 187.30653266331657,-10721.875067716966 189.2964824120603,-10705.387735284921 191.28643216080403,-10688.919301721078 193.27638190954772,-10672.469475959046 195.26633165829145,-10656.03796693244 197.25628140703517,-10639.62448357487 199.2462311557789,-10623.228734819948 201.2361809045226,-10606.850429601283 203.22613065326635,-10590.489276852493 205.21608040201005,-10574.144985507188 207.20603015075378,-10557.817264498974 209.19597989949747,-10541.505822761468 211.1859296482412,-10525.210369228284 213.17587939698493,-10508.93061283303 215.16582914572862,-10492.66626250932 217.15577889447235,-10476.417027190762 219.14572864321607,-10460.182615810972 221.1356783919598,-10443.962737303558 223.1256281407035,-10427.757100602139 225.11557788944725,-10411.56541464032 227.10552763819095,-10395.387388351715 229.09547738693468,-10379.222730669935 231.0854271356784,-10363.071150528594 233.0753768844221,-10346.932356861304 235.06532663316582,-10330.806058601673 237.05527638190955,-10314.691964683314 239.04522613065325,-10298.589784039843 241.03517587939697,-10282.499225604868 243.0251256281407,-10266.419998312002 245.0150753768844,-10250.351811094857 247.00502512562815,-10234.294372887043 248.99497487437185,-10218.247392622176 250.9849246231156,-10202.21057923386 252.97487437185927,-10186.183641655718 254.964824120603,-10170.166288821354 256.9547738693467,-10154.158229664381 258.94472361809045,-10138.159173118413 260.9346733668342,-10122.168828117057 262.9246231155779,-10106.186903593933 264.9145728643216,-10090.213108482647 266.9045226130653,-10074.24715171681 268.89447236180905,-10058.288742230037 270.88442211055275,-10042.337588955941 272.8743718592965,-10026.393400828129 274.8643216080402,-10010.455886780217 276.8542713567839,-9994.524755745815 278.8442211055276,-9978.599716658535 280.83417085427135,-9962.680478451988 282.8241206030151,-9946.766750059789 284.8140703517588,-9930.858240415546 286.8040201005025,-9914.954658452873 288.7939698492462,-9899.055713105383 290.78391959798995,-9883.161113306685 292.77386934673365,-9867.270567990392 294.7638190954774,-9851.383786090117 296.7537688442211,-9835.500476539471 298.74371859296485,-9819.620348272065 300.7336683417085,-9803.743110221512 302.72361809045225,-9787.868471321424 304.713567839196,-9771.996140505411 306.7035175879397,-9756.125826707086 308.6934673366834,-9740.257238860062 310.6834170854271,-9724.39008589795 312.67336683417085,-9708.524076754362 314.66331658291455,-9692.658920362908 316.6532663316583,-9676.794325657203 318.643216080402,-9660.930001570856 320.63316582914575,-9645.065657037481 322.6231155778894,-9629.20100099069 324.61306532663315,-9613.335742364092 326.6030150753769,-9597.469590091301 328.5929648241206,-9581.60225310593 330.5829145728643,-9565.733440341588 332.57286432160805,-9549.862860731888 334.56281407035175,-9533.990223210443 336.55276381909545,-9518.115236710864 338.5427135678392,-9502.237610166761 340.5326633165829,-9486.357052511752 342.52261306532665,-9470.473272679443 344.51256281407035,-9454.585979603444 346.50251256281405,-9438.694882217373 348.4924623115578,-9422.79968945484 350.4824120603015,-9406.900110249453 352.4723618090452,-9390.995853534829 354.46231155778895,-9375.086628244577 356.4522613065327,-9359.17214331231 358.44221105527635,-9343.252107671638 360.4321608040201,-9327.326230256176 362.4221105527638,-9311.394219999533 364.41206030150755,-9295.455785835322 366.40201005025125,-9279.510636697156 368.39195979899495,-9263.558481518645 370.3819095477387,-9247.5990292334 372.3718592964824,-9231.631988775036 374.3618090452261,-9215.657069077162 376.35175879396985,-9199.673979073394 378.3417085427136,-9183.682427697338 380.33165829145725,-9167.682123882609 382.321608040201,-9151.67277656282 384.3115577889447,-9135.654094671581 386.30150753768845,-9119.625787142504 388.29145728643215,-9103.5875629092 390.2814070351759,-9087.539130905283 392.2713567839196,-9071.480200064365 394.2613065326633,-9055.410479320057 396.251256281407,-9039.329677605969 398.24120603015075,-9023.237503855715 400.2311557788945,-9007.133667002907 402.2211055276382,-8991.017875981153 404.2110552763819,-8974.889839724072 406.2010050251256,-8958.749267165269 408.19095477386935,-8942.59586723836 410.18090452261305,-8926.429348876956 412.1708542713568,-8910.249421014669 414.1608040201005,-8894.05579258511 416.1507537688442,-8877.84817252189 418.1407035175879,-8861.62626975862 420.13065326633165,-8845.389793228918 422.1206030150754,-8829.13845186639 424.1105527638191,-8812.87195460465 426.1005025125628,-8796.59001037731 428.0904522613065,-8780.29232811798 430.08040201005025,-8763.978616760272 432.07035175879395,-8747.648585237803 434.06030150753764,-8731.301942484177 436.0502512562814,-8714.938397433012 438.0402010050251,-8698.557659017915 440.0301507537688,-8682.159436172504 442.02010050251255,-8665.743437830384 444.0100502512563,-8649.30937292517 446.0,-8632.856950390476" stroke="black" stroke-width="2" /></svg>