<svg xmlns="http://www.w3.org/2000/svg" width="600" height="600" viewBox="0 0 600 600" style="background:white"><path d="M 135.793,293.999 L 152.776,335.000 L 179.792,370.208 L 215.000,397.224 L 256.001,414.207" stroke="blue" fill="none" stroke-width="0.8" /><path d="M 464.207,293.999 L 447.224,335.000 L 420.208,370.208 L 385.000,397.224 L 343.999,414.207" stroke="blue" fill="none" stroke-width="0.8" /><path d="M 440.059,212.471 L 425.574,177.500 L 402.530,147.470 L 372.500,124.426 L 337.529,109.941" stroke="green" fill="none" stroke-width="0.8" /><path d="M 440.059,212.471 L 425.574,177.500 L 402.530,147.470 L 372.500,124.426 L 337.529,109.941" stroke="green" fill="none" stroke-width="0.8" /><path d="M 300.000,92.500 L 304.123,92.554 L 308.243,92.716 L 312.357,92.986 L 316.463,93.363 L 320.558,93.847 L 324.638,94.439 L 328.702,95.137 L 332.746,95.942 L 336.768,96.852 L 340.764,97.867" stroke="black" fill="none" stroke-width="0.5" /><path d="M 340.764,97.867 L 344.732,98.986 L 348.670,100.209 L 352.575,101.534 L 356.443,102.961 L 360.273,104.489 L 364.061,106.117 L 367.805,107.843 L 371.504,109.666 L 375.153,111.586 L 378.750,113.601" stroke="black" fill="none" stroke-width="0.5" /><path d="M 378.750,113.601 L 382.294,115.709 L 385.781,117.909 L 389.209,120.200 L 392.576,122.580 L 395.880,125.047 L 399.118,127.600 L 402.288,130.236 L 405.388,132.955 L 408.416,135.754 L 411.369,138.631" stroke="black" fill="none" stroke-width="0.5" /><path d="M 411.369,138.631 L 414.246,141.584 L 417.045,144.612 L 419.764,147.712 L 422.400,150.882 L 424.953,154.120 L 427.420,157.424 L 429.800,160.791 L 432.091,164.219 L 434.291,167.706 L 436.399,171.250" stroke="black" fill="none" stroke-width="0.5" /><path d="M 436.399,171.250 L 438.414,174.847 L 440.334,178.496 L 442.157,182.195 L 443.883,185.939 L 445.511,189.727 L 447.039,193.557 L 448.466,197.425 L 449.791,201.330 L 451.014,205.268 L 452.133,209.236" stroke="black" fill="none" stroke-width="0.5" /><path d="M 452.133,209.236 L 453.148,213.232 L 454.058,217.254 L 454.863,221.298 L 455.561,225.362 L 456.153,229.442 L 456.637,233.537 L 457.014,237.643 L 457.284,241.757 L 457.446,245.877 L 457.500,250.000" stroke="black" fill="none" stroke-width="0.5" /><path d="M 457.500,250.000 L 457.446,254.123 L 457.284,258.243 L 457.014,262.357 L 456.637,266.463 L 456.153,270.558 L 455.561,274.638 L 454.863,278.702 L 454.058,282.746 L 453.148,286.768 L 452.133,290.764" stroke="black" fill="none" stroke-width="0.5" /><path d="M 452.133,290.764 L 451.014,294.732 L 449.791,298.670 L 448.466,302.575 L 447.039,306.443 L 445.511,310.273 L 443.883,314.061 L 442.157,317.805 L 440.334,321.504 L 438.414,325.153 L 436.399,328.750" stroke="black" fill="none" stroke-width="0.5" /><path d="M 436.399,328.750 L 434.291,332.294 L 432.091,335.781 L 429.800,339.209 L 427.420,342.576 L 424.953,345.880 L 422.400,349.118 L 419.764,352.288 L 417.045,355.388 L 414.246,358.416 L 411.369,361.369" stroke="black" fill="none" stroke-width="0.5" /><path d="M 411.369,361.369 L 408.416,364.246 L 405.388,367.045 L 402.288,369.764 L 399.118,372.400 L 395.880,374.953 L 392.576,377.420 L 389.209,379.800 L 385.781,382.091 L 382.294,384.291 L 378.750,386.399" stroke="black" fill="none" stroke-width="0.5" /><path d="M 378.750,386.399 L 375.153,388.414 L 371.504,390.334 L 367.805,392.157 L 364.061,393.883 L 360.273,395.511 L 356.443,397.039 L 352.575,398.466 L 348.670,399.791 L 344.732,401.014 L 340.764,402.133" stroke="black" fill="none" stroke-width="0.5" /><path d="M 340.764,402.133 L 336.768,403.148 L 332.746,404.058 L 328.702,404.863 L 324.638,405.561 L 320.558,406.153 L 316.463,406.637 L 312.357,407.014 L 308.243,407.284 L 304.123,407.446 L 300.000,407.500" stroke="black" fill="none" stroke-width="0.5" /><path d="M 300.000,407.500 L 295.877,407.446 L 291.757,407.284 L 287.643,407.014 L 283.537,406.637 L 279.442,406.153 L 275.362,405.561 L 271.298,404.863 L 267.254,404.058 L 263.232,403.148 L 259.236,402.133" stroke="black" fill="none" stroke-width="0.5" /><path d="M 371.824,52.665 L 376.965,54.612 L 382.054,56.694 L 387.086,58.908 L 392.058,61.253 L 396.967,63.728 L 401.810,66.330 L 406.583,69.058 L 411.283,71.910 L 415.907,74.884 L 420.451,77.978 L 424.913,81.190 L 429.289,84.518 L 433.576,87.959 L 437.772,91.511 L 441.874,95.172 L 445.878,98.939 L 449.783,102.809 L 453.584,106.780 L 457.281,110.850 L 460.869,115.015" stroke="red" fill="none" stroke-width="0.6" /><path d="M 427.621,67.739 L 432.348,71.142 L 436.985,74.668 L 441.527,78.314 L 445.973,82.077 L 450.319,85.956 L 454.561,89.947 L 458.698,94.048 L 462.726,98.255 L 466.643,102.567 L 470.445,106.980 L 474.130,111.490 L 477.696,116.096 L 481.141,120.794 L 484.461,125.580 L 487.655,130.451 L 490.720,135.404 L 493.654,140.436 L 496.456,145.543 L 499.123,150.721 L 501.653,155.967" stroke="red" fill="none" stroke-width="0.6" /><path d="M 480.020,98.945 L 483.913,103.709 L 487.679,108.573 L 491.317,113.535 L 494.824,118.590 L 498.197,123.735 L 501.434,128.966 L 504.534,134.280 L 507.493,139.674 L 510.310,145.144 L 512.982,150.685 L 515.509,156.294 L 517.888,161.967 L 520.118,167.701 L 522.197,173.491 L 524.123,179.334 L 525.896,185.225 L 527.515,191.161 L 528.977,197.137 L 530.282,203.149 L 531.430,209.193" stroke="red" fill="none" stroke-width="0.6" /><path d="M 522.045,146.459 L 524.680,152.306 L 527.160,158.221 L 529.485,164.199 L 531.652,170.236 L 533.661,176.327 L 535.509,182.469 L 537.196,188.657 L 538.721,194.887 L 540.082,201.155 L 541.278,207.456 L 542.309,213.787 L 543.174,220.142 L 543.872,226.518 L 544.403,232.910 L 544.767,239.313 L 544.963,245.724 L 544.991,252.138 L 544.851,258.550 L 544.543,264.957 L 544.068,271.353" stroke="red" fill="none" stroke-width="0.6" /><path d="M 551.126,205.720 L 552.199,212.309 L 553.099,218.923 L 553.826,225.559 L 554.379,232.212 L 554.757,238.877 L 554.961,245.550 L 554.990,252.225 L 554.845,258.899 L 554.524,265.567 L 554.030,272.225 L 553.361,278.867 L 552.518,285.489 L 551.503,292.087 L 550.315,298.656 L 548.955,305.192 L 547.425,311.690 L 545.726,318.146 L 543.858,324.555 L 541.823,330.913 L 539.622,337.215" stroke="red" fill="none" stroke-width="0.6" /><path d="M 563.992,273.096 L 563.297,279.999 L 562.421,286.881 L 561.366,293.738 L 560.131,300.564 L 558.718,307.356 L 557.128,314.109 L 555.362,320.818 L 553.421,327.479 L 551.306,334.086 L 549.019,340.635 L 546.561,347.123 L 543.934,353.544 L 541.140,359.894 L 538.180,366.168 L 535.058,372.363 L 531.774,378.475 L 528.332,384.498 L 524.733,390.429 L 520.980,396.263 L 517.075,401.998" stroke="red" fill="none" stroke-width="0.6" /><path d="M 558.415,344.056 L 555.865,350.788 L 553.139,357.451 L 550.239,364.041 L 547.168,370.552 L 543.928,376.981 L 540.520,383.323 L 536.948,389.573 L 533.213,395.728 L 529.319,401.783 L 525.267,407.734 L 521.061,413.576 L 516.703,419.307 L 512.197,424.922 L 507.545,430.416 L 502.751,435.787 L 497.818,441.031 L 492.750,446.144 L 487.550,451.122 L 482.221,455.963 L 476.767,460.662" stroke="red" fill="none" stroke-width="0.6" /><path d="M 533.458,413.469 L 529.099,419.524 L 524.583,425.464 L 519.913,431.282 L 515.092,436.977 L 510.124,442.543 L 505.012,447.978 L 499.759,453.276 L 494.370,458.436 L 488.847,463.452 L 483.194,468.323 L 477.417,473.043 L 471.517,477.611 L 465.500,482.023 L 459.370,486.276 L 453.130,490.367 L 446.786,494.293 L 440.341,498.051 L 433.799,501.640 L 427.166,505.056 L 420.446,508.298" stroke="red" fill="none" stroke-width="0.6" /><path d="M 488.015,474.068 L 482.086,478.913 L 476.031,483.601 L 469.856,488.129 L 463.564,492.493 L 457.160,496.692 L 450.649,500.721 L 444.034,504.579 L 437.320,508.262 L 430.513,511.768 L 423.616,515.095 L 416.634,518.240 L 409.572,521.201 L 402.436,523.977 L 395.229,526.564 L 387.956,528.962 L 380.624,531.169 L 373.236,533.183 L 365.798,535.003 L 358.315,536.628 L 350.792,538.056" stroke="red" fill="none" stroke-width="0.6" /></svg>